<?xml version="1.0" standalone="no"?>
<!DOCTYPE svg PUBLIC "-//W3C//DTD SVG 20010904//EN"
 "http://www.w3.org/TR/2001/REC-SVG-20010904/DTD/svg10.dtd">
<svg version="1.0" xmlns="http://www.w3.org/2000/svg"
 width="300.000000pt" height="300.000000pt" viewBox="75 75 150.000000 150.000000"
 preserveAspectRatio="xMidYMid meet">
<g transform="translate(0.000000,300.000000) scale(0.100000,-0.100000)"
fill="#A00000" stroke="none">
<path d="M1120 2008 l0 -63 155 3 155 3 0 -96 0 -97 66 58 c63 56 66 60 61 96
l-5 38 46 0 c43 1 52 5 110 60 l63 60 -326 0 -325 0 0 -62z m560 23 c0 -15
-32 -36 -88 -56 -50 -18 -56 -24 -67 -62 -23 -76 -65 -98 -65 -33 0 52 -18 90
-44 91 -12 1 -25 2 -31 4 -5 1 -59 3 -118 3 -111 2 -128 9 -113 47 5 13 44 15
266 15 143 0 260 -4 260 -9z"/>
<path d="M1640 1905 c-96 -91 -185 -173 -198 -182 -23 -16 -25 -15 -85 45
l-62 62 -42 -41 -41 -42 100 -96 c55 -53 103 -97 107 -99 6 -2 146 123 289
261 62 60 72 74 72 104 l0 35 46 -3 46 -3 1 62 2 62 -30 0 c-25 -1 -60 -29
-205 -165z m200 104 c0 -13 -10 -23 -30 -31 -21 -7 -38 -24 -55 -57 -25 -50
-279 -299 -321 -316 -22 -8 -32 -1 -98 64 -41 41 -72 80 -69 87 10 27 35 21
85 -21 28 -25 62 -45 75 -45 14 0 48 24 90 63 37 34 73 67 79 72 6 6 48 44 94
85 46 41 92 85 103 98 26 28 47 28 47 1z"/>
<path d="M1492 1567 l-62 -63 0 -98 0 -98 34 -34 c24 -24 43 -34 65 -34 l31 0
0 195 c0 107 -1 195 -3 195 -1 0 -31 -28 -65 -63z m34 -154 c-1 -135 -8 -151
-45 -114 -18 18 -21 33 -21 108 0 75 3 90 22 110 41 43 45 32 44 -104z"/>
<path d="M930 1080 c0 -5 14 -10 30 -10 l30 0 0 -70 c0 -40 4 -70 10 -70 6 0
10 30 10 70 l0 70 30 0 c17 0 30 5 30 10 0 6 -30 10 -70 10 -40 0 -70 -4 -70
-10z"/>
<path d="M1142 1014 c-32 -76 -34 -110 -5 -66 21 30 89 32 98 2 3 -11 12 -20
20 -20 18 0 -47 154 -66 158 -10 2 -26 -23 -47 -74z m66 4 c11 -27 10 -28 -18
-28 -17 0 -30 2 -30 4 0 1 5 18 11 35 12 34 18 33 37 -11z"/>
<path d="M1330 1010 l0 -80 53 0 c29 0 58 5 65 12 15 15 16 54 2 63 -7 4 -7
13 0 26 8 13 7 25 0 39 -9 16 -21 20 -65 20 l-55 0 0 -80z m95 35 c0 -15 -8
-21 -32 -23 -30 -3 -33 -1 -33 23 0 24 3 26 33 23 24 -2 32 -8 32 -23z m10
-70 c0 -16 -8 -21 -37 -23 -35 -3 -38 -1 -38 23 0 24 3 26 38 23 29 -2 37 -7
37 -23z"/>
<path d="M1534 1074 c3 -9 6 -37 6 -64 0 -58 18 -80 65 -80 47 0 65 29 65 102
0 32 -4 58 -10 58 -5 0 -10 -23 -10 -51 0 -61 -13 -89 -43 -89 -36 0 -47 19
-47 82 0 47 -3 58 -16 58 -11 0 -14 -5 -10 -16z"/>
<path d="M1750 1010 l0 -80 60 0 c33 0 60 4 60 10 0 6 -20 10 -45 10 l-45 0 0
70 c0 56 -3 70 -15 70 -12 0 -15 -16 -15 -80z"/>
<path d="M1955 1018 c-16 -39 -31 -75 -33 -80 -2 -4 3 -8 11 -8 8 0 17 9 20
20 4 16 14 20 45 20 32 0 42 -4 47 -20 3 -11 13 -20 20 -20 19 0 -46 154 -66
158 -9 1 -25 -24 -44 -70z m63 2 c11 -29 10 -30 -19 -30 -16 0 -29 2 -29 4 0
1 5 17 11 34 13 37 23 34 37 -8z"/>
</g>
</svg>
